<svg xmlns="http://www.w3.org/2000/svg" width="228" height="144" viewBox="0 0 228 144">
    <defs>
        <linearGradient id="a" x1="59.135%" x2="-1.552%" y1="50%" y2="97.051%">
            <stop offset="0%" stop-opacity="0"/>
            <stop offset="100%" stop-color="#C93131"/>
        </linearGradient>
    </defs>
    <g fill="none" fill-rule="evenodd">
        <g fill="#000" opacity=".03" transform="translate(.5)">
            <rect width="137" height="16" x="44" rx="8"/>
            <rect width="193" height="16" x="18" y="32" rx="8"/>
            <rect width="169" height="16" x="15" y="64" rx="8"/>
            <rect width="34" height="16" x="193" y="64" rx="8"/>
            <rect width="137" height="16" x="44" y="96" rx="8"/>
            <path d="M168 32h-66a8 8 0 1 0 0-16h66a8 8 0 1 0 0 16zM168 64H38a8 8 0 1 0 0-16h130a8 8 0 1 0 0 16zM173.18 96H93.895a8 8 0 1 0 0-16h79.283a8 8 0 1 0 0 16z"/>
            <rect width="137" height="16" x="44" y="128" rx="8"/>
            <rect width="34" height="16" y="98" rx="8"/>
            <rect width="34" height="16" rx="8"/>
            <path d="M129.18 128H49.895a8 8 0 1 0 0-16h79.283a8 8 0 1 0 0 16z"/>
        </g>
        <g transform="translate(68.5 17)">
            <path fill="#C93131" d="M14.077 85.037l57.644 19.597-4.493 3.957L14.71 90.497z"/>
            <path fill="url(#a)" d="M11.765 94.126l56.626-.238-2.753 5.205-51.494-.034z" transform="rotate(19 40.078 96.49)"/>
            <g fill="#4A4A4A" fill-rule="nonzero">
                <path d="M10.285 45.134a1.6 1.6 0 0 1-.379-2.245l16.25-22.54a1.63 1.63 0 0 1 1.322-.674h4.875c.897 0 1.625.721 1.625 1.61 0 .889-.728 1.61-1.625 1.61h-4.038L12.55 44.759a1.635 1.635 0 0 1-2.267.375zM79.946 45.434a1.63 1.63 0 0 1-1.324-.675L62.858 22.895H58.82a1.618 1.618 0 0 1-1.625-1.61c0-.889.728-1.61 1.625-1.61h4.875a1.63 1.63 0 0 1 1.323.674l16.249 22.54a1.6 1.6 0 0 1-.379 2.245c-.286.202-.616.3-.942.3"/>
            </g>
            <path fill="#DD4545" fill-rule="nonzero" d="M76.458 90.488H14.715L4.967 51.82h81.24z"/>
            <g fill="#FFF" fill-rule="nonzero">
                <path d="M25.01 83.964a1.604 1.604 0 0 1-1.596-1.61V59.815c0-.888.715-1.61 1.596-1.61.882 0 1.597.722 1.597 1.61v22.54c0 .888-.715 1.61-1.597 1.61M35.298 83.964a1.604 1.604 0 0 1-1.596-1.61V59.815c0-.888.715-1.61 1.596-1.61.882 0 1.597.722 1.597 1.61v22.54c0 .888-.715 1.61-1.597 1.61M45.586 83.964a1.604 1.604 0 0 1-1.596-1.61V59.815c0-.888.715-1.61 1.596-1.61.882 0 1.597.722 1.597 1.61v22.54c0 .888-.715 1.61-1.597 1.61M55.874 83.964a1.604 1.604 0 0 1-1.596-1.61V59.815c0-.888.715-1.61 1.596-1.61.882 0 1.597.722 1.597 1.61v22.54c0 .888-.715 1.61-1.597 1.61M66.162 83.964a1.604 1.604 0 0 1-1.596-1.61V59.815c0-.888.715-1.61 1.596-1.61.882 0 1.597.722 1.597 1.61v22.54c0 .888-.715 1.61-1.597 1.61"/>
            </g>
            <rect width="90.818" height="9.578" y="42.241" fill="#DD4545" rx="4.789"/>
            <path fill="#AD0E0E" d="M11.11 42.241a4.79 4.79 0 0 0 0 9.579H4.79a4.79 4.79 0 1 1 0-9.579h6.32z" opacity=".304"/>
            <path fill="#CF4141" d="M81.16 51.82a4.249 4.249 0 0 0 4.226-4.684 4.458 4.458 0 0 0-4.437-4.895h5.096a4.79 4.79 0 1 1 0 9.579H81.16z"/>
            <path fill="#AD0E0E" d="M20.33 90.301h-5.687l-9.73-38.668h5.838z" opacity=".299"/>
            <path fill="#CF4141" d="M76.287 90.448h-5.301l10.456-38.65h4.762z"/>
            <path fill="#FDC794" d="M32.283 11.377h6.03v17.206a3.015 3.015 0 0 1-6.03 0V11.377z"/>
            <path fill="#FDC794" d="M37.25 13.86h6.03v17.206a3.015 3.015 0 1 1-6.03 0V13.86z"/>
            <path fill="#FDC794" d="M42.926 15.28h6.03v17.205a3.015 3.015 0 1 1-6.03 0V15.28z"/>
            <path fill="#FDC794" d="M47.538 16.698h6.03v12.95a3.015 3.015 0 0 1-6.03 0v-12.95z"/>
            <path fill="#FDC794" d="M50.376 15.989c.804 1.243 1.55 1.987 2.24 2.234 1.836.656 5.134-.754 5.564.604.553 1.746.609 4.137.167 7.173a2.396 2.396 0 0 1-2.371 2.05 2.702 2.702 0 0 1-2.59-1.932l-3.01-10.129z"/>
            <path fill="#FDC794" d="M32.283 8.539H51.44c.15-.031.624.56 1.419 1.774.45.687 3.331 4.554 4.257 5.676.473.573.828 1.52 1.064 2.838H32.283V8.539z"/>
            <rect width="2.483" height="8.159" x="36.185" y="23.439" fill="#E7A964" rx="1.242"/>
            <rect width="2.483" height="8.159" x="41.507" y="24.858" fill="#E7A964" rx="1.242"/>
            <rect width="2.483" height="8.159" x="47.538" y="24.858" fill="#E7A964" rx="1.242"/>
            <rect width="2.483" height="8.159" x="52.504" y="20.601" fill="#E7A964" rx="1.242"/>
            <path fill="#3B6692" d="M30.495.553h23.769v1.625H30.495z"/>
            <path fill="#4482C3" d="M30.495 2.178h23.769v8.159H30.495z"/>
        </g>
    </g>
</svg>
